<svg xmlns="http://www.w3.org/2000/svg" width="106.941" height="63.248" viewBox="0 0 106.941 63.248">
  <g id="_4102587_-_applications_google_media_plus_social" data-name="4102587 - applications google media plus social" transform="translate(-28 -72.754)">
    <path id="Path_1741" data-name="Path 1741" d="M0,54.59Z" transform="translate(28 28)" fill="#e65149"/>
    <path id="Path_1739" data-name="Path 1739" d="M43.592,55.361H56.7a16.092,16.092,0,0,1-15.167,9.254c-8.74,0-14.4-6.067-14.4-15.424,0-7.918,4.5-16.452,14.4-16.452a16.4,16.4,0,0,1,10.488,3.779l7.892-9.434A28.9,28.9,0,0,0,41.535,20.4C26.291,20.4,14.8,32.765,14.8,49.192S26.034,76.955,41.535,76.955A27.995,27.995,0,0,0,70.327,49.192v-6.17H43.592Z" transform="translate(30.681 59.036)" fill="#fff"/>
    <path id="Path_1740" data-name="Path 1740" d="M65.935,34.854H56.681V25.6H48.454v9.254H39.2v8.226h9.254v9.254h8.226V43.081h9.254Z" transform="translate(69.006 67.203)" fill="#fff"/>
  </g>
</svg>
