<svg xmlns="http://www.w3.org/2000/svg" width="125.556" height="113" viewBox="0 0 125.556 113">
  <path id="ic_business_center_24px" d="M52.222,84.611V78.333H8.341l-.063,25.111A12.512,12.512,0,0,0,20.833,116h87.889a12.512,12.512,0,0,0,12.556-12.556V78.333H77.333v6.278ZM115,28.111H89.826V15.556L77.271,3H52.159L39.6,15.556V28.111H14.556A12.592,12.592,0,0,0,2,40.667V59.5A12.512,12.512,0,0,0,14.556,72.056H52.222V59.5H77.333V72.056H115A12.592,12.592,0,0,0,127.556,59.5V40.667A12.592,12.592,0,0,0,115,28.111Zm-37.667,0H52.222V15.556H77.333Z" transform="translate(-2 -3)" fill="#fff"/>
</svg>
