<svg xmlns="http://www.w3.org/2000/svg" width="120.767" height="120.787" viewBox="0 0 120.767 120.787">
  <path id="ic_beach_access_24px" d="M70.954,80.57l9.6-9.6,43.218,43.238-9.576,9.576Zm28.81-38.453,19.193-19.193a67.9,67.9,0,0,0-95.965-.134C49.365,14.066,78.758,21.112,99.763,42.117ZM22.79,22.991a67.9,67.9,0,0,0,.134,95.965L42.117,99.763C21.112,78.758,14.066,49.365,22.79,22.991Zm.134-.134-.067.067c-2.55,20.2,7.852,46.171,28.857,67.243L90.167,51.714c-21-21-47.043-31.407-67.243-28.857Z" transform="translate(-3.001 -3.001)" fill="#fff"/>
</svg>
