<svg xmlns="http://www.w3.org/2000/svg" width="53.137" height="48.753" viewBox="0 0 53.137 48.753">
  <path id="ic_favorite_border_24px" d="M40.524,3A15.91,15.91,0,0,0,28.568,8.553,15.91,15.91,0,0,0,16.613,3,14.471,14.471,0,0,0,2,17.613c0,10.043,9.033,18.226,22.716,30.66l3.852,3.48,3.852-3.507C46.1,35.838,55.137,27.655,55.137,17.613A14.471,14.471,0,0,0,40.524,3ZM28.834,44.314l-.266.266-.266-.266C15.656,32.863,7.314,25.291,7.314,17.613a9.08,9.08,0,0,1,9.3-9.3,10.387,10.387,0,0,1,9.485,6.27h4.968a10.321,10.321,0,0,1,9.458-6.27,9.08,9.08,0,0,1,9.3,9.3C49.823,25.291,41.481,32.863,28.834,44.314Z" transform="translate(-2 -3)" fill="#fff"/>
</svg>
